<svg width="15" height="15" viewBox="0 0 15 15" fill="none" xmlns="http://www.w3.org/2000/svg">
<path d="M3.30922 0.272949C1.54547 0.272949 0.109222 1.7092 0.109222 3.47295V11.1529C0.109222 12.9167 1.54547 14.3529 3.30922 14.3529H10.9892C12.753 14.3529 14.1892 12.9167 14.1892 11.1529V3.47295C14.1892 1.7092 12.753 0.272949 10.9892 0.272949H3.30922ZM2.35797 5.07295H2.84797L2.85547 7.3392L4.17297 6.03295H4.82922L3.64922 7.1267L4.90922 9.23295H4.28922L3.31547 7.4642L2.85547 7.8917L2.84797 9.2267H2.35797V5.07295ZM11.4605 5.07295H11.9492V9.2267H11.4605V5.07295ZM6.40297 6.03295C6.58297 6.03295 6.75297 6.0517 6.90922 6.0942C7.06547 6.13545 7.20672 6.1992 7.32797 6.2892C7.44672 6.37545 7.54672 6.4842 7.62297 6.61545C7.70297 6.75045 7.75047 6.9067 7.76922 7.0892H7.23172C7.19047 6.8942 7.10422 6.74295 6.97672 6.63795C6.84547 6.53295 6.66922 6.47795 6.44797 6.47795C6.25922 6.47795 6.10297 6.5092 5.97422 6.5767C5.85047 6.6442 5.74797 6.73295 5.67047 6.84545C5.59797 6.9542 5.54297 7.08295 5.51047 7.2267C5.47547 7.37045 5.45922 7.5217 5.45922 7.6742C5.45922 7.81545 5.47922 7.95545 5.51422 8.09045C5.54672 8.22545 5.60047 8.3442 5.67422 8.4492C5.74797 8.5517 5.84297 8.63795 5.96172 8.69795C6.08047 8.76295 6.22047 8.7942 6.38672 8.7942C6.64297 8.7942 6.84547 8.73045 6.98922 8.5992C7.13297 8.46795 7.22297 8.28545 7.25422 8.0492H7.78922C7.73172 8.4267 7.58422 8.72045 7.35047 8.92545C7.11797 9.13045 6.79797 9.23295 6.39047 9.23295C6.15047 9.23295 5.93672 9.1942 5.75047 9.1217C5.56547 9.0442 5.41172 8.9392 5.28672 8.8017C5.16172 8.66295 5.06672 8.4967 5.00547 8.30545C4.94172 8.11295 4.90922 7.90545 4.90922 7.67545C4.90922 7.4442 4.94047 7.2292 5.00172 7.0317C5.06297 6.83295 5.15547 6.6567 5.28047 6.51045C5.40547 6.36295 5.56172 6.2442 5.74672 6.1617C5.93672 6.0742 6.15422 6.03295 6.40297 6.03295ZM9.52297 6.03295C9.66422 6.03295 9.79922 6.04295 9.93672 6.0617C10.0742 6.08045 10.1955 6.12295 10.308 6.18295C10.4167 6.2442 10.5055 6.33045 10.573 6.4392C10.6405 6.5517 10.6755 6.69545 10.6755 6.87045V8.44545C10.6755 8.5642 10.6817 8.65045 10.6955 8.7042C10.708 8.7592 10.7555 8.78795 10.8355 8.78795C10.8767 8.78795 10.928 8.7817 10.9892 8.76545V9.15545C10.903 9.2067 10.7805 9.23295 10.628 9.23295C10.4967 9.23295 10.3942 9.19795 10.318 9.1242C10.2405 9.05045 10.1992 8.9317 10.1992 8.76545C10.0605 8.9317 9.90047 9.05045 9.71922 9.1242C9.53297 9.19795 9.33547 9.23295 9.12047 9.23295C8.98297 9.23295 8.85172 9.2167 8.72672 9.1842C8.60172 9.15295 8.49672 9.10545 8.40297 9.03795C8.31422 8.97045 8.24422 8.8817 8.18922 8.7717C8.13422 8.6667 8.10922 8.5317 8.10922 8.37795C8.10922 8.20545 8.13797 8.06545 8.19797 7.95295C8.25672 7.84045 8.33672 7.7517 8.43172 7.6842C8.52797 7.6142 8.64047 7.56295 8.76547 7.5267C8.88672 7.4917 9.01547 7.46045 9.14547 7.43795C9.28422 7.4092 9.41547 7.3892 9.53922 7.3742C9.66422 7.36045 9.77297 7.3417 9.86922 7.3167C9.96547 7.29045 10.038 7.2517 10.093 7.2042C10.1505 7.15295 10.1767 7.08295 10.1767 6.9867C10.1767 6.87795 10.1567 6.78795 10.1155 6.7217C10.0742 6.6542 10.0192 6.60295 9.95547 6.56795C9.88797 6.5317 9.81797 6.5067 9.73422 6.4942C9.65422 6.4842 9.57422 6.47795 9.49422 6.47795C9.28422 6.47795 9.10422 6.5192 8.96297 6.5992C8.81922 6.6792 8.74297 6.83295 8.72922 7.0567H8.22672C8.23422 6.86795 8.27547 6.70795 8.34547 6.5767C8.41672 6.4492 8.51297 6.3442 8.63047 6.26045C8.74922 6.18045 8.88422 6.12295 9.03672 6.08795C9.18797 6.0517 9.35047 6.03295 9.52297 6.03295ZM10.1705 7.5842C10.1092 7.63295 10.0255 7.66795 9.92297 7.6867C9.81797 7.7092 9.71297 7.7292 9.60047 7.7417C9.48547 7.7542 9.37297 7.77045 9.25797 7.7892C9.14297 7.80545 9.04047 7.8342 8.95047 7.87545C8.86172 7.9142 8.78422 7.9692 8.72672 8.0417C8.66922 8.11545 8.64297 8.21545 8.64297 8.34045C8.64297 8.4242 8.65922 8.49295 8.69172 8.5517C8.72672 8.60545 8.76797 8.6542 8.82297 8.6892C8.87797 8.7242 8.93797 8.7492 9.00797 8.76545C9.07922 8.7817 9.15547 8.78795 9.23547 8.78795C9.40172 8.78795 9.54297 8.76545 9.66047 8.7217C9.77922 8.6767 9.87547 8.61795 9.95172 8.5517C10.0255 8.48045 10.0805 8.40795 10.118 8.3242C10.1542 8.2442 10.1692 8.17045 10.1692 8.10045L10.1705 7.5842Z" fill="white"/>
</svg>
