<svg width="15" height="15" viewBox="0 0 15 15" fill="none" xmlns="http://www.w3.org/2000/svg">
<path d="M10.9892 0.23291H3.30919C1.54544 0.23291 0.109192 1.66916 0.109192 3.43291V11.1129C0.109192 12.8767 1.54544 14.3129 3.30919 14.3129H10.9892C12.7529 14.3129 14.1892 12.8767 14.1892 11.1129V3.43291C14.1892 1.66916 12.7529 0.23291 10.9892 0.23291ZM6.61169 4.18541C6.86419 3.32791 7.69294 2.73166 8.37794 2.54291C8.39044 2.64291 8.60794 4.05041 8.16044 5.22166C7.91044 5.84541 7.66419 6.07291 7.47294 6.15666C7.43419 6.14916 7.40169 6.14041 7.37919 6.13041C7.26419 6.08916 6.91919 5.86541 6.70794 5.45166L6.70419 5.44916C6.70419 5.44916 6.70419 5.44916 6.70169 5.44916C6.63044 5.31166 6.57669 5.14791 6.55044 4.96541C6.55044 4.96541 6.55044 4.96541 6.54794 4.96291C6.51544 4.73541 6.52544 4.47916 6.61169 4.18541ZM4.31669 6.48916C4.47419 5.58291 5.01169 5.03666 5.60044 4.57166C5.60044 4.57541 5.60419 4.57791 5.60419 4.58166C6.07669 5.15166 6.30169 6.20041 6.14419 7.08041C6.02294 7.74291 5.67419 8.29416 5.41419 8.54666C5.37294 8.55666 5.33419 8.55916 5.30544 8.55291C5.06544 8.49541 4.04794 7.85541 4.31669 6.48916ZM2.85419 10.6942C2.46794 10.4667 1.88169 9.85541 2.06419 8.79291C2.21794 7.89416 2.67544 7.32791 3.26794 6.92416C3.27044 6.93041 3.27419 6.93666 3.27669 6.94291C3.59044 7.37791 4.00044 8.06291 3.94544 8.99791C3.85669 10.0854 3.21044 10.5654 2.85419 10.6942ZM5.62544 12.3579C4.56419 12.5404 3.95294 11.9542 3.72544 11.5679C3.85294 11.2154 4.33919 10.5629 5.41794 10.4692C6.33919 10.4217 7.00169 10.8054 7.47919 11.1479C7.48169 11.1517 7.48794 11.1517 7.49169 11.1579C7.08794 11.7467 6.52169 12.2079 5.62544 12.3579ZM7.94544 10.0954C6.47669 10.3604 5.93919 9.36291 5.87544 9.12291C5.86544 9.08791 5.87294 9.03666 5.89169 8.97791V8.97541C6.15419 8.71291 6.69419 8.38041 7.34794 8.28791C8.27294 8.13416 9.20419 8.32916 9.84044 8.81791C9.36419 9.42291 8.83919 9.94541 7.94544 10.0954ZM10.2117 7.83291C9.93919 7.90666 9.69669 7.91666 9.48169 7.88791C9.27669 7.85791 9.10419 7.79791 8.95419 7.71791C8.95419 7.71416 8.95419 7.71416 8.95419 7.71416C8.54169 7.50291 8.32044 7.15416 8.28544 7.03916C8.27544 7.01041 8.26544 6.97791 8.26294 6.93666C8.34544 6.74541 8.57669 6.50166 9.19044 6.25541C10.3454 5.82916 11.7417 6.05041 11.8817 6.07291C11.6767 6.74541 11.0654 7.60291 10.2117 7.83291ZM11.2617 4.77666C10.4129 5.62791 9.37669 5.32791 9.24169 5.18916C9.10419 5.05166 8.79044 4.02541 9.65169 3.16416C10.3392 2.47291 11.9492 2.47291 11.9492 2.47291C11.9492 2.47291 11.9492 4.08916 11.2617 4.77666Z" fill="white"/>
</svg>
