<svg width="19" height="20" viewBox="0 0 19 20" fill="none" xmlns="http://www.w3.org/2000/svg">
<g clip-path="url(#clip0_3_100)">
<path d="M8.24316 4.80322C8.24316 4.30967 8.61934 3.9126 9.08691 3.9126C9.55449 3.9126 9.93066 4.30967 9.93066 4.80322V9.3751L12.9295 11.4829C13.3162 11.7575 13.4217 12.3104 13.1334 12.7187C12.9049 13.1269 12.3811 13.2382 11.9943 12.9339L8.61934 10.5589C8.38379 10.4253 8.24316 10.147 8.24316 9.8167V4.80322ZM9.08691 0.350098C14.058 0.350098 18.0869 4.60283 18.0869 9.8501C18.0869 15.0974 14.058 19.3501 9.08691 19.3501C4.11582 19.3501 0.0869141 15.0974 0.0869141 9.8501C0.0869141 4.60283 4.11582 0.350098 9.08691 0.350098ZM1.77441 9.8501C1.77441 14.114 5.04746 17.5688 9.08691 17.5688C13.1264 17.5688 16.3994 14.114 16.3994 9.8501C16.3994 5.58623 13.1264 2.13135 9.08691 2.13135C5.04746 2.13135 1.77441 5.58623 1.77441 9.8501Z" fill="white"/>
</g>
<defs>
<clipPath id="clip0_3_100">
<rect width="18" height="19" fill="white" transform="translate(0.0869141 0.350098)"/>
</clipPath>
</defs>
</svg>
