<svg width="14" height="17" viewBox="0 0 14 17" fill="none" xmlns="http://www.w3.org/2000/svg">
<path d="M5.63501 0.896912C4.60962 0.896912 3.76489 1.6994 3.76489 2.67352V3.27191H0.0148926V4.45941H1.26489V14.5532C1.26489 15.5366 2.10474 16.3344 3.13989 16.3344H10.6399C11.675 16.3344 12.5149 15.5366 12.5149 14.5532V4.45941H13.7649V3.27191H10.0149V2.67352C10.0149 1.6994 9.17017 0.896912 8.14478 0.896912H5.63501ZM5.63501 2.08441H8.14478C8.49634 2.08441 8.76489 2.33954 8.76489 2.67352V3.27191H5.01489V2.67352C5.01489 2.33954 5.28345 2.08441 5.63501 2.08441ZM3.76489 5.64691H5.01489V13.9594H3.76489V5.64691ZM6.26489 5.64691H7.51489V13.9594H6.26489V5.64691ZM8.76489 5.64691H10.0149V13.9594H8.76489V5.64691Z" fill="#FA003F"/>
</svg>
