<svg width="24" height="24" viewBox="0 0 24 24" fill="none" xmlns="http://www.w3.org/2000/svg">
<path d="M23.2831 11.8612C23.2831 18.1989 18.1454 23.3367 11.8077 23.3367C5.46995 23.3367 0.332214 18.1989 0.332214 11.8612C0.332214 5.52348 5.46995 0.385742 11.8077 0.385742C18.1454 0.385742 23.2831 5.52348 23.2831 11.8612Z" fill="#FA003F"/>
<g clip-path="url(#clip0_311_71)">
<path d="M7.58593 7.01624C6.97501 7.01624 6.47675 7.52582 6.47675 8.15062V14.957C6.47675 15.5818 6.97501 16.0913 7.58593 16.0913H13.5369L12.4278 14.957H7.58593V8.15062H16.4594V13.1003L17.5685 14.2347V8.15062C17.5685 7.52582 17.0703 7.01624 16.4594 7.01624H7.58593ZM12.5772 12.121V13.508L16.0673 17.0751L17.4212 15.6881L13.9334 12.121H12.5772ZM17.9 16.18L16.5439 17.5669L17.2219 18.2582C17.3562 18.3934 17.5707 18.3934 17.7007 18.2582L18.5781 17.3631C18.7102 17.2257 18.7102 17.0064 18.5781 16.8735L17.9 16.18Z" fill="white"/>
</g>
<defs>
<clipPath id="clip0_311_71">
<rect width="13.3102" height="13.6127" fill="white" transform="translate(5.36749 4.74744)"/>
</clipPath>
</defs>
</svg>
