<svg width="25" height="25" viewBox="0 0 25 25" fill="none" xmlns="http://www.w3.org/2000/svg">
<g clip-path="url(#clip0_33_465)">
<path d="M16.6731 3.08008C13.7781 3.08008 12.1731 5.17008 12.1731 5.17008C12.1731 5.17008 10.5681 3.08008 7.6731 3.08008C4.6351 3.08008 2.1731 5.54208 2.1731 8.58008C2.1731 12.7511 7.0851 16.7931 8.4541 18.0701C10.0311 19.5401 12.1731 21.4301 12.1731 21.4301C12.1731 21.4301 14.3151 19.5401 15.8921 18.0701C17.2611 16.7931 22.1731 12.7511 22.1731 8.58008C22.1731 5.54208 19.7111 3.08008 16.6731 3.08008ZM14.9841 16.1901C14.8071 16.3501 14.6531 16.4891 14.5281 16.6061C13.7771 17.3061 12.8891 18.1091 12.1731 18.7511C11.4571 18.1091 10.5681 17.3051 9.8181 16.6061C9.6921 16.4891 9.5381 16.3491 9.3621 16.1901C7.9421 14.9071 4.1731 11.4991 4.1731 8.58008C4.1731 6.65008 5.7431 5.08008 7.6731 5.08008C9.5001 5.08008 10.5591 6.35508 10.5871 6.38808L12.1731 8.08008L13.7591 6.38808C13.7691 6.37508 14.8461 5.08008 16.6731 5.08008C18.6031 5.08008 20.1731 6.65008 20.1731 8.58008C20.1731 11.4991 16.4041 14.9071 14.9841 16.1901Z" fill="#FA003F"/>
<g clip-path="url(#clip1_33_465)">
<path d="M16.4998 3C13.6048 3 11.9998 5.09 11.9998 5.09C11.9998 5.09 10.3948 3 7.49976 3C4.46176 3 1.99976 5.462 1.99976 8.5C1.99976 12.671 6.91176 16.713 8.28076 17.99C9.85776 19.46 11.9998 21.35 11.9998 21.35C11.9998 21.35 14.1418 19.46 15.7188 17.99C17.0878 16.713 21.9998 12.671 21.9998 8.5C21.9998 5.462 19.5378 3 16.4998 3ZM14.8108 16.11C14.6338 16.27 14.4798 16.409 14.3548 16.526C13.6038 17.226 12.7158 18.029 11.9998 18.671C11.2838 18.029 10.3948 17.225 9.64476 16.526C9.51876 16.409 9.36476 16.269 9.18876 16.11C7.76876 14.827 3.99976 11.419 3.99976 8.5C3.99976 6.57 5.56976 5 7.49976 5C9.32676 5 10.3858 6.275 10.4138 6.308L11.9998 8L13.5858 6.308C13.5958 6.295 14.6728 5 16.4998 5C18.4298 5 19.9998 6.57 19.9998 8.5C19.9998 11.419 16.2308 14.827 14.8108 16.11Z" fill="#FA003F"/>
<path d="M16.5506 2.97241C13.6315 2.97241 12.0131 5.07112 12.0131 5.07112C12.0131 5.07112 10.3948 2.97241 7.47564 2.97241C4.41233 2.97241 1.92981 5.44467 1.92981 8.49533C1.92981 12.6837 6.88274 16.7425 8.26315 18.0249C9.85329 19.501 12.0131 21.3989 12.0131 21.3989C12.0131 21.3989 14.173 19.501 15.7631 18.0249C17.1435 16.7425 22.0965 12.6837 22.0965 8.49533C22.0965 5.44467 19.614 2.97241 16.5506 2.97241Z" fill="#FA003F"/>
</g>
</g>
<defs>
<clipPath id="clip0_33_465">
<rect width="24" height="24" fill="white" transform="translate(0.173096 0.0800781)"/>
</clipPath>
<clipPath id="clip1_33_465">
<rect width="24" height="24" fill="white" transform="translate(-0.000244141)"/>
</clipPath>
</defs>
</svg>
