<svg xmlns="http://www.w3.org/2000/svg" width="2100" height="701.125" viewBox="0 0 2100 701.125">
  <defs>
    <style>
      .cls-1 {
        fill: #fa003f;
        fill-rule: evenodd;
      }
    </style>
  </defs>
  <path class="cls-1" d="M2210,0s-109,34-107,482a375.868,375.868,0,0,0-112-32c-225.83-27.2-344.98,183.7-550,206-242.6,26.393-328.9-180.48-576-142C682.032,542.493,631.022,682.9,445,700,297,713.6-1,506-1,506-0.667,337.35-36.333,122.65-36-46c42.675,0,148.594-74.989,191-70,0,0,34.226,34,72,34,44.662,0,113.338,16,158,16,131.987,0,290.013-22,422-22,442.62,0,1077.38,78,1520,78H2205Q2207.505-5,2210,0Z"/>
</svg>
