<svg width="17" height="16" viewBox="0 0 17 16" fill="none" xmlns="http://www.w3.org/2000/svg">
<path d="M15.4669 0.128418C15.4062 0.128835 15.3457 0.138 15.2876 0.155632C15.2704 0.160279 15.2535 0.165644 15.2369 0.171712L1.31218 4.6001V4.60257C1.19137 4.64765 1.08719 4.72854 1.01358 4.83442C0.939976 4.9403 0.900442 5.06613 0.900269 5.19508C0.900499 5.30384 0.928731 5.4107 0.982244 5.50538C1.03576 5.60005 1.11275 5.67936 1.2058 5.73564L5.43751 9.09281L13.8032 2.42549L7.13588 10.7912L10.4906 15.0204C10.5468 15.1143 10.6263 15.192 10.7215 15.246C10.8167 15.3 10.9242 15.3284 11.0336 15.3284C11.1626 15.3282 11.2884 15.2887 11.3943 15.2151C11.5001 15.1415 11.581 15.0373 11.6261 14.9165H11.6286L16.0607 0.97946C16.0652 0.966812 16.0693 0.954023 16.0731 0.941113C16.0907 0.882942 16.0999 0.822535 16.1003 0.761751C16.1003 0.593781 16.0335 0.43269 15.9148 0.313917C15.796 0.195144 15.6349 0.128418 15.4669 0.128418Z" fill="black"/>
</svg>
