<svg width="14" height="14" viewBox="0 0 14 14" fill="none" xmlns="http://www.w3.org/2000/svg">
<path d="M10.8018 0.552734C10.638 0.552734 10.4743 0.615234 10.3493 0.740235L9.80554 1.28273L13.1393 4.61648L13.6818 4.07273C13.803 3.95148 13.8693 3.79148 13.8693 3.62023C13.8693 3.44898 13.803 3.28898 13.6818 3.16773L11.2543 0.740235C11.1293 0.615234 10.9655 0.552734 10.8018 0.552734ZM12.8543 0.562734C12.6055 0.561484 12.3568 0.652734 12.1755 0.833984L12.163 0.846485L13.5755 2.25898L13.588 2.24648C13.963 1.87273 13.9618 1.26273 13.588 0.887734L13.533 0.833984C13.3518 0.652734 13.1043 0.562734 12.8543 0.562734ZM8.28554 0.861485C8.12179 0.861485 7.95804 0.923984 7.83304 1.04898L7.48554 1.39523C7.23554 1.64523 7.23554 2.05148 7.48554 2.30148L12.1143 6.92898C12.2343 7.05023 12.3955 7.11648 12.5655 7.11648C12.7368 7.11648 12.898 7.05023 13.0193 6.92898L13.3655 6.58273C13.4868 6.46148 13.5543 6.30023 13.5543 6.12898C13.5543 5.95898 13.4868 5.79773 13.3655 5.67773L12.7605 5.07148L8.73804 1.04898C8.61304 0.923984 8.44929 0.861485 8.28554 0.861485ZM8.82679 4.47023C8.75179 4.62648 8.69054 4.77898 8.63429 4.91898C8.55679 5.11273 8.48804 5.28523 8.40429 5.40023C8.27429 5.45148 8.01429 5.53148 7.87929 5.57273C7.09929 5.81648 6.56054 6.00273 6.21054 6.37273C5.88679 6.71523 5.70804 7.22648 5.47054 7.96648C5.42804 8.10023 5.33554 8.38773 5.28054 8.52398C5.16429 8.61023 4.98929 8.68023 4.78929 8.76023C4.65179 8.81523 4.50054 8.87523 4.34554 8.94898L5.56679 10.1702C5.86804 10.044 6.18929 9.88773 6.47429 9.60273C6.68804 9.38898 6.79929 9.06148 6.99429 8.45398C7.09054 8.15523 7.26804 7.59773 7.36679 7.47898C7.49679 7.36773 8.05429 7.19398 8.35429 7.10148C8.94804 6.91648 9.26679 6.81023 9.47929 6.59773C9.76429 6.31273 9.92054 5.99148 10.0468 5.69023L8.82679 4.47023ZM1.73179 7.43523C1.56679 7.43523 1.40054 7.49523 1.27929 7.61648L0.931791 7.96273C0.811791 8.08398 0.744291 8.24523 0.744291 8.41648C0.744291 8.58648 0.811791 8.74773 0.931791 8.86773L4.90929 12.8452L4.92429 12.8615L5.11929 13.0552L5.56054 13.4965C5.68554 13.6215 5.84929 13.684 6.01304 13.684C6.17679 13.684 6.34054 13.6215 6.46554 13.4965L6.81304 13.149C7.06304 12.9002 7.06304 12.494 6.81304 12.244L2.18429 7.61648C2.06429 7.49523 1.89804 7.43523 1.73179 7.43523ZM1.15929 9.92898L0.616791 10.4727C0.495541 10.594 0.429291 10.754 0.429291 10.9252C0.429291 11.0965 0.495541 11.2565 0.616791 11.3777L3.04429 13.8052C3.16929 13.9302 3.33304 13.9927 3.49679 13.9927C3.66054 13.9927 3.82429 13.9302 3.94929 13.8052L4.49304 13.2627L1.15929 9.92898ZM0.723041 12.2865L0.710541 12.299C0.335541 12.6727 0.336791 13.2827 0.711791 13.6577L0.765541 13.7115C0.946791 13.8927 1.18804 13.9927 1.44429 13.9927C1.70054 13.9927 1.94179 13.8927 2.12304 13.7115L2.13554 13.699L0.723041 12.2865Z" fill="white"/>
</svg>
