<svg width="18" height="16" viewBox="0 0 18 16" fill="none" xmlns="http://www.w3.org/2000/svg">
<g clip-path="url(#clip0_183_4650)">
<path d="M9.49493 0.546056C9.33613 0.212355 9.00056 0 8.63203 0C8.2635 0 7.93092 0.212355 7.76913 0.546056L5.84258 4.55957L1.54004 5.2027C1.1805 5.2573 0.880882 5.51213 0.770023 5.861C0.659164 6.20987 0.749049 6.59514 1.00672 6.853L4.12875 9.98069L3.39169 14.4007C3.33177 14.7647 3.48158 15.1348 3.7782 15.3502C4.07482 15.5656 4.46732 15.5929 4.79091 15.42L8.63503 13.342L12.4791 15.42C12.8027 15.5929 13.1952 15.5687 13.4919 15.3502C13.7885 15.1318 13.9383 14.7647 13.8784 14.4007L13.1383 9.98069L16.2603 6.853C16.518 6.59514 16.6109 6.20987 16.497 5.861C16.3832 5.51213 16.0866 5.2573 15.727 5.2027L11.4215 4.55957L9.49493 0.546056Z" fill="white"/>
</g>
<defs>
<clipPath id="clip0_183_4650">
<rect width="17.2581" height="15.5323" fill="white"/>
</clipPath>
</defs>
</svg>
