<svg width="18" height="16" viewBox="0 0 18 16" fill="none" xmlns="http://www.w3.org/2000/svg">
<g clip-path="url(#clip0_183_4658)">
<path d="M9.3679 0.0062151C9.64355 0.0062151 9.89523 0.165481 10.0151 0.416364L12.0705 4.7023L16.6636 5.39093C16.9333 5.43037 17.155 5.62149 17.2419 5.88238C17.3258 6.14631 17.2569 6.43451 17.0651 6.62563L13.7333 9.9687L14.5213 14.686C14.5663 14.959 14.4554 15.2381 14.2307 15.3989C14.009 15.5597 13.6884 15.5809 13.4727 15.4505L9.3679 13.2299L5.23915 15.4505C5.02342 15.5809 4.72979 15.5597 4.50508 15.3989C4.28336 15.2381 4.1725 14.959 4.19048 14.686L5.00245 9.9687L1.67398 6.62563C1.48042 6.43451 1.41181 6.14631 1.4969 5.88238C1.5817 5.62149 1.80551 5.43037 2.07487 5.39093L6.66533 4.7023L8.72072 0.416364C8.84356 0.165451 9.09225 0.0062151 9.3679 0.0062151ZM9.3679 2.40128L7.7949 5.6852C7.69003 5.90059 7.48629 6.05227 7.25259 6.08867L3.70749 6.61653L6.28182 9.19816C6.44661 9.36501 6.52152 9.60466 6.48257 9.83825L5.87734 13.4665L9.02933 11.7616C9.24206 11.6463 9.49674 11.6463 9.70647 11.7616L12.8585 13.4665L12.2532 9.83825C12.2143 9.60466 12.2922 9.36501 12.457 9.19816L15.0307 6.61653L11.4862 6.08867C11.2495 6.05227 11.0458 5.90059 10.9439 5.6852L9.3679 2.40128Z" fill="white"/>
</g>
<defs>
<clipPath id="clip0_183_4658">
<rect width="17.2581" height="15.5323" fill="white" transform="translate(0.741943 0.0062151)"/>
</clipPath>
</defs>
</svg>
