<svg width="1463" height="276" viewBox="0 0 1463 276" fill="none" xmlns="http://www.w3.org/2000/svg">
<rect x="0.855469" y="0.784546" width="1462" height="192.602" fill="#FA003F"/>
<rect x="0.855957" y="29.4836" width="1462" height="192.602" fill="#FA003F"/>
<rect x="0.855469" y="128.922" width="122.247" height="112.347" fill="#FA003F"/>
<ellipse cx="407.355" cy="185.096" rx="219.5" ry="26.1479" fill="#FA003F"/>
<ellipse cx="967.856" cy="191.473" rx="405" ry="26.1479" fill="#FA003F"/>
<ellipse cx="1008.36" cy="215.389" rx="244.5" ry="30.2934" fill="#FA003F"/>
<path d="M5.229 219.645C49.9971 228.945 141.715 249.351 263.69 233.595C385.664 217.84 536.273 205.87 593.867 205.87C672.792 205.87 814.239 229.478 852.382 237.698C905.689 249.187 1021.57 257.393 1098.06 243.442C1159.24 232.282 1297.94 202.139 1348.37 199.951L1459.62 193.386" stroke="#FA003F" stroke-width="50"/>
<ellipse cx="204.355" cy="205.387" rx="203.5" ry="26.133" fill="#FA003F"/>
</svg>
